<mxfile host="app.diagrams.net" modified="2022-02-26T18:50:51.591Z" agent="5.0 (Macintosh)" etag="p3o4afe1zuGNyOLwh-3K" version="16.6.4" type="github">
  <diagram id="Pbzh9_7AI2XHzCLIpab5" name="Page-1">
    <mxGraphModel dx="2066" dy="1155" grid="1" gridSize="10" guides="1" tooltips="1" connect="1" arrows="1" fold="1" page="1" pageScale="1" pageWidth="850" pageHeight="1100" math="0" shadow="0">
      <root>
        <mxCell id="0" />
        <mxCell id="1" parent="0" />
        <mxCell id="bTnPtjO57g7JYjd8ViPB-9" style="edgeStyle=orthogonalEdgeStyle;rounded=0;orthogonalLoop=1;jettySize=auto;html=1;exitX=1;exitY=0.5;exitDx=0;exitDy=0;anchorPointDirection=0;endArrow=none;endFill=0;" parent="1" source="bTnPtjO57g7JYjd8ViPB-1" target="bTnPtjO57g7JYjd8ViPB-2" edge="1">
          <mxGeometry relative="1" as="geometry" />
        </mxCell>
        <mxCell id="bTnPtjO57g7JYjd8ViPB-1" value="A1" style="ellipse;whiteSpace=wrap;html=1;aspect=fixed;" parent="1" vertex="1">
          <mxGeometry x="90" y="500" width="80" height="80" as="geometry" />
        </mxCell>
        <mxCell id="bTnPtjO57g7JYjd8ViPB-10" style="rounded=0;orthogonalLoop=1;jettySize=auto;html=1;exitX=1;exitY=0.5;exitDx=0;exitDy=0;entryX=0;entryY=0.5;entryDx=0;entryDy=0;strokeColor=default;endArrow=none;endFill=0;" parent="1" source="bTnPtjO57g7JYjd8ViPB-2" target="bTnPtjO57g7JYjd8ViPB-3" edge="1">
          <mxGeometry relative="1" as="geometry" />
        </mxCell>
        <mxCell id="bTnPtjO57g7JYjd8ViPB-2" value="A2" style="ellipse;whiteSpace=wrap;html=1;aspect=fixed;" parent="1" vertex="1">
          <mxGeometry x="230" y="500" width="80" height="80" as="geometry" />
        </mxCell>
        <mxCell id="bTnPtjO57g7JYjd8ViPB-11" style="edgeStyle=orthogonalEdgeStyle;rounded=0;orthogonalLoop=1;jettySize=auto;html=1;exitX=1;exitY=0.5;exitDx=0;exitDy=0;entryX=0;entryY=0.5;entryDx=0;entryDy=0;endArrow=none;endFill=0;" parent="1" source="bTnPtjO57g7JYjd8ViPB-3" target="bTnPtjO57g7JYjd8ViPB-4" edge="1">
          <mxGeometry relative="1" as="geometry" />
        </mxCell>
        <mxCell id="bTnPtjO57g7JYjd8ViPB-12" style="edgeStyle=orthogonalEdgeStyle;rounded=0;orthogonalLoop=1;jettySize=auto;html=1;exitX=0.5;exitY=0;exitDx=0;exitDy=0;entryX=0.5;entryY=1;entryDx=0;entryDy=0;endArrow=none;endFill=0;" parent="1" source="bTnPtjO57g7JYjd8ViPB-3" target="bTnPtjO57g7JYjd8ViPB-5" edge="1">
          <mxGeometry relative="1" as="geometry" />
        </mxCell>
        <mxCell id="bTnPtjO57g7JYjd8ViPB-3" value="A3" style="ellipse;whiteSpace=wrap;html=1;aspect=fixed;" parent="1" vertex="1">
          <mxGeometry x="370" y="500" width="80" height="80" as="geometry" />
        </mxCell>
        <mxCell id="bTnPtjO57g7JYjd8ViPB-4" value="A4" style="ellipse;whiteSpace=wrap;html=1;aspect=fixed;" parent="1" vertex="1">
          <mxGeometry x="510" y="500" width="80" height="80" as="geometry" />
        </mxCell>
        <mxCell id="bTnPtjO57g7JYjd8ViPB-13" style="edgeStyle=orthogonalEdgeStyle;rounded=0;orthogonalLoop=1;jettySize=auto;html=1;exitX=1;exitY=0.5;exitDx=0;exitDy=0;entryX=0;entryY=0.5;entryDx=0;entryDy=0;endArrow=none;endFill=0;" parent="1" source="bTnPtjO57g7JYjd8ViPB-5" target="bTnPtjO57g7JYjd8ViPB-6" edge="1">
          <mxGeometry relative="1" as="geometry" />
        </mxCell>
        <mxCell id="bTnPtjO57g7JYjd8ViPB-5" value="B1" style="ellipse;whiteSpace=wrap;html=1;aspect=fixed;" parent="1" vertex="1">
          <mxGeometry x="370" y="350" width="80" height="80" as="geometry" />
        </mxCell>
        <mxCell id="bTnPtjO57g7JYjd8ViPB-14" style="edgeStyle=orthogonalEdgeStyle;rounded=0;orthogonalLoop=1;jettySize=auto;html=1;exitX=1;exitY=0.5;exitDx=0;exitDy=0;entryX=0;entryY=0.5;entryDx=0;entryDy=0;endArrow=none;endFill=0;" parent="1" source="bTnPtjO57g7JYjd8ViPB-6" target="bTnPtjO57g7JYjd8ViPB-7" edge="1">
          <mxGeometry relative="1" as="geometry" />
        </mxCell>
        <mxCell id="bTnPtjO57g7JYjd8ViPB-6" value="B2" style="ellipse;whiteSpace=wrap;html=1;aspect=fixed;" parent="1" vertex="1">
          <mxGeometry x="510" y="350" width="80" height="80" as="geometry" />
        </mxCell>
        <mxCell id="bTnPtjO57g7JYjd8ViPB-7" value="B3" style="ellipse;whiteSpace=wrap;html=1;aspect=fixed;" parent="1" vertex="1">
          <mxGeometry x="650" y="350" width="80" height="80" as="geometry" />
        </mxCell>
      </root>
    </mxGraphModel>
  </diagram>
</mxfile>
